<svg xmlns="http://www.w3.org/2000/svg" width="49.973" height="43.637" viewBox="0 0 49.973 43.637"><defs><style>.a,.b,.e{fill:none;}.a,.b,.c{stroke:#3e3e3e;}.a,.c{stroke-miterlimit:10;stroke-width:1.417px;}.c{fill:#fff;}.d{stroke:none;}</style></defs><g class="a" transform="translate(3.374)"><rect class="d" width="46.599" height="32.377" rx="2.232"/><rect class="e" x="0.709" y="0.709" width="45.181" height="30.96" rx="1.524"/></g><line class="a" x2="45.086" transform="translate(3.979 25.493)"/><rect class="b" width="15.111" height="1.68" rx="0.84" transform="translate(35.006 22.63) rotate(-45)"/><rect class="b" width="6.967" height="1.68" rx="0.84" transform="translate(40.765 22.639) rotate(-45)"/><path class="a" d="M235.807,340.477H243.5a.314.314,0,0,0,.143-.593c-.728-.394-2.589-1.029-2.589-2.03v-8.623h-5.245" transform="translate(-209.134 -297.548)"/><path class="a" d="M235.807,340.477h-7.691a.314.314,0,0,1-.143-.593c.728-.394,2.589-1.029,2.589-2.03v-8.623h5.245" transform="translate(-209.134 -297.548)"/><g transform="translate(0 8.46)"><g class="c"><rect class="d" width="19.411" height="11.7"/><rect class="e" x="0.709" y="0.709" width="17.994" height="10.283"/></g><path class="a" d="M215.307,309.778l-2.194,2.194,2.181,2.181" transform="translate(-209.134 -306.008)"/><path class="a" d="M222.792,309.778l2.194,2.194-2.181,2.181" transform="translate(-209.134 -306.008)"/><line class="c" y1="5.598" x2="3.505" transform="translate(7.953 3.013)"/></g></svg>