<svg xmlns="http://www.w3.org/2000/svg" width="50.068" height="32.377" viewBox="0 0 50.068 32.377"><defs><style>.a,.b,.e{fill:none;}.a,.b{stroke:#3e3e3e;}.a{stroke-miterlimit:10;stroke-width:1.417px;}.c{fill:#3e3e3e;}.d{stroke:none;}</style></defs><g class="a"><rect class="d" width="50.068" height="32.377" rx="2.232"/><rect class="e" x="0.709" y="0.709" width="48.65" height="30.96" rx="1.524"/></g><line class="a" x2="48.214" transform="translate(1.039 6.853)"/><circle class="b" cx="1.414" cy="1.414" r="1.414" transform="translate(3.572 2.457)"/><circle class="b" cx="1.414" cy="1.414" r="1.414" transform="translate(8.136 2.457)"/><circle class="b" cx="1.414" cy="1.414" r="1.414" transform="translate(12.7 2.457)"/><g transform="translate(17.853 12.1)"><path class="c" d="M344.971,324.593a7.178,7.178,0,1,1,7.182-7.057A7.172,7.172,0,0,1,344.971,324.593Zm-1.612-3.165a.783.783,0,0,0,.039-.081q.69-2.062,1.376-4.127a.289.289,0,0,0-.012-.174q-.467-1.285-.941-2.569a.2.2,0,0,0-.133-.106c-.179-.029-.36-.045-.54-.059s-.272-.1-.27-.255a.232.232,0,0,1,.274-.246c.257.01.513.034.77.045.343.015.686.04,1.028.032.529-.013,1.057-.054,1.586-.077.188-.008.3.088.3.241a.284.284,0,0,1-.3.26c-.226.018-.45.043-.7.066l2.346,6.977c.031-.04.045-.051.049-.064.332-1.112.669-2.224.992-3.339a3.053,3.053,0,0,0,.088-1.358,3.964,3.964,0,0,0-.586-1.442,3.344,3.344,0,0,1-.535-1.186,1.143,1.143,0,0,1,.848-1.28c.1-.017.191-.03.294-.046a6.455,6.455,0,0,0-9.791,1.251c.194,0,.369.006.543,0,.529-.023,1.058-.048,1.586-.082a.253.253,0,0,1,.294.249c.006.145-.108.242-.279.256-.23.018-.46.043-.706.066Zm3.782,2.125-2.047-5.605c-.035.079-.054.113-.066.149q-.552,1.607-1.1,3.214c-.251.729-.5,1.459-.757,2.187-.042.117-.016.163.1.184.335.062.667.148,1.005.188a6.065,6.065,0,0,0,1.97-.088C346.54,323.719,346.832,323.633,347.141,323.553Zm-5.023-.3.044-.032-3.082-8.445c-.606.733-.773,3.109-.3,4.586A6.436,6.436,0,0,0,342.118,323.251Zm6.1-.253.048.026a6.453,6.453,0,0,0,3.185-5.194,6.03,6.03,0,0,0-.791-3.5,5.831,5.831,0,0,1-.054,1.522,9.1,9.1,0,0,1-.428,1.485q-.834,2.382-1.654,4.77Z" transform="translate(-337.793 -310.238)"/></g></svg>