<svg fill="none" height="21" viewBox="0 0 21 21" width="21" xmlns="http://www.w3.org/2000/svg"><path d="m7.00008 2.00024h7.00002c2.6666 0 4.8333 2.16667 4.8333 4.83334v7.00002c0 1.2819-.5092 2.5112-1.4156 3.4177-.9065.9064-2.1358 1.4156-3.4177 1.4156h-7.00002c-2.66666 0-4.83333-2.1667-4.83333-4.8333v-7.00002c0-1.28188.50922-2.51126 1.41565-3.41769.90642-.90642 2.1358-1.41565 3.41768-1.41565zm-.16666 1.66667c-.79565 0-1.55872.31607-2.12133.87868-.5626.56261-.87868 1.32567-.87868 2.12132v7.33329c0 1.6584 1.34167 3 3.00001 3h7.33328c.7957 0 1.5588-.316 2.1214-.8786s.8786-1.3257.8786-2.1214v-7.33329c0-1.65833-1.3416-3-3-3zm8.04168 1.25c.2762 0 .5412.10975.7366.3051.1953.19535.305.4603.305.73657 0 .27626-.1097.54122-.305.73657-.1954.19535-.4604.30509-.7366.30509-.2763 0-.5412-.10974-.7366-.30509-.1953-.19535-.3051-.46031-.3051-.73657 0-.27627.1098-.54122.3051-.73657.1954-.19535.4603-.3051.7366-.3051zm-4.375 1.25c1.1051 0 2.1649.43899 2.9463 1.22039s1.2203 1.84121 1.2203 2.9463c0 1.105-.4389 2.1649-1.2203 2.9463s-1.8412 1.2203-2.9463 1.2203c-1.10509 0-2.16489-.4389-2.9463-1.2203-.7814-.7814-1.22038-1.8413-1.22038-2.9463 0-1.10509.43898-2.1649 1.22038-2.9463.78141-.7814 1.84121-1.22039 2.9463-1.22039zm0 1.66667c-.66306 0-1.29894.26339-1.76779.73223-.46884.46884-.73223 1.10473-.73223 1.76779 0 .663.26339 1.2989.73223 1.7677.46885.4689 1.10473.7323 1.76779.7323.663 0 1.2989-.2634 1.7677-.7323.4689-.4688.7323-1.1047.7323-1.7677 0-.66306-.2634-1.29895-.7323-1.76779-.4688-.46884-1.1047-.73223-1.7677-.73223z" fill="#9ed0e0"/></svg>